<?xml version="1.0" encoding="utf-8"?>
<!-- Generator: Adobe Illustrator 15.0.0, SVG Export Plug-In . SVG Version: 6.00 Build 0)  -->
<!DOCTYPE svg PUBLIC "-//W3C//DTD SVG 1.1//EN" "http://www.w3.org/Graphics/SVG/1.1/DTD/svg11.dtd">
<svg version="1.1" id="Layer_1" xmlns="http://www.w3.org/2000/svg" xmlns:xlink="http://www.w3.org/1999/xlink" x="0px" y="0px"
	 width="1024px" height="1024px" viewBox="0 0 1024 1024" enable-background="new 0 0 1024 1024" xml:space="preserve">
<path d="M-7.898,477.819h34.516v121.016h74.781v28.122H-7.898V477.819z"/>
<path d="M124.783,477.819h34.516v149.138h-34.516V477.819L124.783,477.819z"/>
<path d="M282.625,484.425c9.727,4.403,17.219,10.652,22.477,18.747c5.252,8.096,7.885,17.682,7.885,28.763
	c0,10.938-2.633,20.488-7.885,28.656c-5.258,8.168-12.75,14.416-22.477,18.747c-9.732,4.335-21.199,6.499-34.408,6.499h-30.041
	v41.119h-34.514V477.819h64.555C261.426,477.819,272.895,480.024,282.625,484.425z M269.947,551.005
	c5.396-4.475,8.096-10.83,8.096-19.069c0-8.38-2.699-14.807-8.096-19.281c-5.4-4.476-13.283-6.71-23.648-6.71h-28.123v51.771h28.123
	C256.664,557.715,264.547,555.476,269.947,551.005z"/>
<path d="M363.004,451.107c-45.543-44.219-113.352-43.897-119.537-43.774H-57.165c-3.522,0.041-52.346,0.373-85.693,33.37
	c-19.93,19.722-30.036,46.282-30.036,78.945c0,31.729,9.943,57.357,29.552,76.184c32.652,31.341,80.57,31.12,86.4,30.957h21.95
	v0.169h6.308v-40.156h-6.308h-22.25l-0.817,0.018c-0.347,0.021-36.023,0.872-57.592-19.835
	c-11.612-11.146-17.256-26.633-17.256-47.335c0-21.788,5.885-38.254,17.992-50.342c21.827-21.792,57.196-21.987,57.464-21.987
	l301.144,0.001l0.536-0.006c0.563,0,56.671-0.957,91.096,32.653c18.334,17.901,27.63,43.166,27.63,75.097
	c0,31.991-9.298,57.229-27.637,75.016c-34.375,33.339-90.401,32.031-90.901,32.012l-0.361-0.014H-64.143
	c-148.164,0-159.679-112.435-159.679-146.894l-0.026-1.024c-0.033-0.629-2.738-63.422,39.447-107.827
	c28.011-29.484,70.058-44.434,124.97-44.434h299.257c11.042,0,19.994-8.951,19.994-19.994c0-11.042-8.952-19.994-19.994-19.994
	H-59.428c-66.305,0-118.105,19.137-153.962,56.88c-52.048,54.784-50.718,128.914-50.417,136.827
	c0.052,20.904,3.92,73.216,37.785,117.512c34.969,45.74,89.432,68.934,161.879,68.934H243.4c0.48,0.014,1.273,0.025,2.355,0.025
	c13.903,0,75.005-2.418,117.146-43.06c26.569-25.623,40.04-60.605,40.04-103.968C402.942,511.813,389.506,476.836,363.004,451.107z"
	/>
<g>
	<path d="M548.48,561.766c3.461,5.019,5.193,11.131,5.193,18.339c0,15.406-6.078,27.066-18.232,34.979
		c-12.156,7.917-28.338,11.872-48.547,11.872H409.09l29.68-148.4h71.656c15.97,0,28.266,2.936,36.889,8.799
		c8.619,5.866,12.932,14.24,12.932,25.121c0,9.047-2.369,16.785-7.102,23.215c-4.737,6.433-11.203,11.342-19.398,14.733
		C540.105,552.968,545.016,556.751,548.48,561.766z M511.486,595.58c5.37-3.674,8.056-8.974,8.056-15.9
		c0-10.176-7.42-15.264-22.26-15.264H455.73l-7.208,36.676h40.492C498.624,601.092,506.113,599.257,511.486,595.58z M467.602,504.42
		l-6.996,34.98h34.98c9.043,0,16.076-1.803,21.094-5.406c5.016-3.604,7.526-8.798,7.526-15.582c0-9.328-7.281-13.992-21.836-13.992
		H467.602z"/>
	<path d="M609.642,621.444c-10.885-5.37-19.223-12.933-25.017-22.685c-5.797-9.752-8.691-20.987-8.691-33.708
		c0-16.817,3.85-31.976,11.555-45.474c7.701-13.495,18.513-24.132,32.436-31.906c13.918-7.771,29.855-11.66,47.807-11.66
		c14.84,0,27.699,2.687,38.584,8.057c10.881,5.373,19.219,12.932,25.016,22.684c5.793,9.752,8.691,20.988,8.691,33.708
		c0,16.821-3.852,31.979-11.555,45.474c-7.703,13.499-18.516,24.136-32.436,31.906c-13.922,7.774-29.859,11.66-47.807,11.66
		C633.385,629.5,620.523,626.817,609.642,621.444z M679.814,592.4c8.193-5.228,14.484-12.224,18.867-20.988
		c4.379-8.762,6.572-18.444,6.572-29.044c0-11.306-3.535-20.315-10.6-27.03c-7.07-6.711-17.033-10.07-29.893-10.07
		c-10.885,0-20.426,2.617-28.621,7.845c-8.197,5.23-14.488,12.227-18.867,20.987c-4.383,8.766-6.572,18.444-6.572,29.045
		c0,11.309,3.531,20.318,10.6,27.029c7.066,6.715,17.031,10.07,29.893,10.07C662.074,600.244,671.615,597.631,679.814,592.4z"/>
	<path d="M853.652,595.156h-69.111l-19.291,31.8h-36.678l96.037-148.4h33.92l36.465,148.4h-34.346L853.652,595.156z M847.93,569.08
		l-12.508-57.24l-34.98,57.24H847.93z"/>
	<path d="M1047.42,560.176c-7.492,9.895-17.881,16.891-31.164,20.988l25.863,45.792h-36.252l-23.32-41.552h-29.256l-8.268,41.552
		h-34.555l29.68-148.4h60.42c18.371,0,32.648,4.028,42.824,12.084c10.176,8.057,15.264,19.365,15.264,33.92
		C1058.656,538.413,1054.91,550.285,1047.42,560.176z M1014.453,550.212c6.287-5.227,9.436-12.72,9.436-22.472
		c0-7.065-2.406-12.366-7.209-15.9c-4.807-3.531-11.66-5.3-20.564-5.3H968.98l-10.389,51.516h29.256
		C999.295,558.056,1008.164,555.442,1014.453,550.212z"/>
	<path d="M1095.965,478.556h62.115c15.121,0,28.16,2.512,39.113,7.526c10.951,5.019,19.363,12.19,25.229,21.518
		c5.863,9.328,8.799,20.283,8.799,32.86c0,17.245-3.889,32.403-11.66,45.474c-7.775,13.075-18.623,23.182-32.543,30.316
		c-13.922,7.139-29.998,10.706-48.229,10.706h-72.504L1095.965,478.556z M1139.848,598.76c11.588,0,21.658-2.438,30.211-7.313
		c8.549-4.876,15.084-11.587,19.609-20.141c4.521-8.549,6.785-18.195,6.785-28.938c0-11.163-3.605-19.892-10.813-26.182
		c-7.209-6.287-17.67-9.435-31.377-9.435h-29.467l-18.445,92.008H1139.848z"/>
</g>
</svg>
