<?xml version="1.0" encoding="utf-8"?>
<!-- Generator: Adobe Illustrator 15.0.0, SVG Export Plug-In . SVG Version: 6.00 Build 0)  -->
<!DOCTYPE svg PUBLIC "-//W3C//DTD SVG 1.1//EN" "http://www.w3.org/Graphics/SVG/1.1/DTD/svg11.dtd">
<svg version="1.1" id="Layer_1" xmlns="http://www.w3.org/2000/svg" xmlns:xlink="http://www.w3.org/1999/xlink" x="0px" y="0px"
	 width="1024px" height="1024px" viewBox="0 0 1024 1024" enable-background="new 0 0 1024 1024" xml:space="preserve">
<g>
	<g>
		<path d="M280.436,477.819h34.515v121.016h74.782v28.122H280.436V477.819z"/>
		<path d="M409.118,477.819h34.515v149.138h-34.515V477.819z"/>
		<path d="M577.959,484.425c9.727,4.403,17.22,10.652,22.477,18.747c5.252,8.096,7.884,17.682,7.884,28.763
			c0,10.938-2.632,20.488-7.884,28.656c-5.257,8.168-12.75,14.416-22.477,18.747c-9.731,4.335-21.199,6.499-34.408,6.499h-30.04
			v41.119h-34.515V477.819h64.555C556.76,477.819,568.228,480.024,577.959,484.425z M565.282,551.005
			c5.396-4.475,8.095-10.83,8.095-19.069c0-8.38-2.699-14.807-8.095-19.282c-5.4-4.475-13.283-6.71-23.649-6.71h-28.122v51.771
			h28.122C551.999,557.715,559.882,555.476,565.282,551.005z"/>
		<path d="M731.782,484.425c9.728,4.403,17.222,10.652,22.477,18.747c5.254,8.096,7.884,17.682,7.884,28.763
			c0,10.938-2.63,20.488-7.884,28.656c-5.255,8.168-12.749,14.416-22.477,18.747c-9.729,4.335-21.197,6.499-34.408,6.499h-30.039
			v41.119h-34.516V477.819h64.555C710.585,477.819,722.053,480.024,731.782,484.425z M719.105,551.005
			c5.397-4.475,8.097-10.83,8.097-19.069c0-8.38-2.699-14.807-8.097-19.282c-5.398-4.475-13.281-6.71-23.647-6.71h-28.123v51.771
			h28.123C705.824,557.715,713.707,555.476,719.105,551.005z"/>
		<path d="M858.229,574.119v52.838h-34.514v-53.264l-57.737-95.874h36.646l39.841,66.261l39.841-66.261h33.874L858.229,574.119z"/>
	</g>
	<path d="M965.187,451.107c-45.542-44.218-113.351-43.897-119.537-43.774l-620.067,0c-3.522,0.041-52.346,0.373-85.693,33.37
		c-19.93,19.722-30.036,46.282-30.036,78.945c0,31.729,9.943,57.358,29.552,76.184c32.652,31.341,80.57,31.12,86.401,30.957h21.95
		v0.169h12.773v-40.156h-12.773h-22.25l-0.817,0.017c-0.347,0.022-36.024,0.872-57.593-19.835
		c-11.612-11.146-17.256-26.632-17.256-47.335c0-21.788,5.885-38.254,17.992-50.341c21.827-21.792,57.196-21.988,57.464-21.988
		l620.579,0.001l0.536-0.006c0.563,0,56.671-0.957,91.096,32.654c18.334,17.901,27.63,43.166,27.63,75.096
		c0,31.992-9.298,57.229-27.637,75.016c-34.375,33.339-90.402,32.031-90.902,32.012l-0.361-0.014H218.605
		c-148.163,0-159.678-112.435-159.678-146.894l-0.026-1.024c-0.033-0.629-2.738-63.422,39.447-107.827
		c28.011-29.484,70.058-44.434,124.971-44.434h618.692c11.042,0,19.994-8.951,19.994-19.994c0-11.042-8.952-19.994-19.994-19.994
		H223.32c-66.305,0-118.105,19.137-153.962,56.88C17.31,433.576,18.64,507.706,18.941,515.619
		c0.052,20.904,3.92,73.216,37.785,117.512c34.969,45.74,89.432,68.933,161.879,68.933h626.979c0.48,0.014,1.274,0.026,2.356,0.026
		c13.903,0,75.004-2.418,117.146-43.06c26.569-25.623,40.04-60.605,40.04-103.968C1005.126,511.813,991.689,476.836,965.187,451.107
		z"/>
</g>
</svg>
